<mxfile host="app.diagrams.net" agent="Mozilla/5.0 (Windows NT 10.0; Win64; x64) AppleWebKit/537.36 (KHTML, like Gecko) Chrome/123.0.0.0 Safari/537.36 OPR/109.0.0.0" version="24.7.7">
  <diagram name="PÃ¡gina-1" id="2alXb9Ua76mQgp3lZa1x">
    <mxGraphModel dx="1009" dy="1711" grid="1" gridSize="10" guides="1" tooltips="1" connect="1" arrows="1" fold="1" page="1" pageScale="1" pageWidth="827" pageHeight="1169" math="0" shadow="0">
      <root>
        <mxCell id="0" />
        <mxCell id="1" parent="0" />
        <mxCell id="as25Dl-nawI_TPOrROMk-1" value="Contrato" style="ellipse;whiteSpace=wrap;html=1;aspect=fixed;fontSize=17;" parent="1" vertex="1">
          <mxGeometry x="270" y="190" width="180" height="180" as="geometry" />
        </mxCell>
        <mxCell id="as25Dl-nawI_TPOrROMk-6" style="edgeStyle=orthogonalEdgeStyle;rounded=0;orthogonalLoop=1;jettySize=auto;html=1;exitX=0.5;exitY=0;exitDx=0;exitDy=0;entryX=1;entryY=0.5;entryDx=0;entryDy=0;" parent="1" source="as25Dl-nawI_TPOrROMk-2" target="as25Dl-nawI_TPOrROMk-1" edge="1">
          <mxGeometry relative="1" as="geometry" />
        </mxCell>
        <mxCell id="as25Dl-nawI_TPOrROMk-2" value="Empresa" style="ellipse;whiteSpace=wrap;html=1;aspect=fixed;fontSize=17;" parent="1" vertex="1">
          <mxGeometry x="570" y="400" width="180" height="180" as="geometry" />
        </mxCell>
        <mxCell id="as25Dl-nawI_TPOrROMk-7" style="edgeStyle=orthogonalEdgeStyle;rounded=0;orthogonalLoop=1;jettySize=auto;html=1;exitX=1;exitY=0.5;exitDx=0;exitDy=0;entryX=0.5;entryY=1;entryDx=0;entryDy=0;" parent="1" source="as25Dl-nawI_TPOrROMk-3" target="as25Dl-nawI_TPOrROMk-1" edge="1">
          <mxGeometry relative="1" as="geometry" />
        </mxCell>
        <mxCell id="as25Dl-nawI_TPOrROMk-3" value="Servicio" style="ellipse;whiteSpace=wrap;html=1;aspect=fixed;fontSize=17;" parent="1" vertex="1">
          <mxGeometry x="10" y="390" width="180" height="180" as="geometry" />
        </mxCell>
        <mxCell id="as25Dl-nawI_TPOrROMk-9" style="edgeStyle=orthogonalEdgeStyle;rounded=0;orthogonalLoop=1;jettySize=auto;html=1;exitX=0.5;exitY=1;exitDx=0;exitDy=0;entryX=0;entryY=0.5;entryDx=0;entryDy=0;" parent="1" source="as25Dl-nawI_TPOrROMk-4" target="as25Dl-nawI_TPOrROMk-1" edge="1">
          <mxGeometry relative="1" as="geometry" />
        </mxCell>
        <mxCell id="as25Dl-nawI_TPOrROMk-4" value="Geografifia" style="ellipse;whiteSpace=wrap;html=1;aspect=fixed;fontSize=17;" parent="1" vertex="1">
          <mxGeometry x="50" y="-10" width="180" height="180" as="geometry" />
        </mxCell>
        <mxCell id="as25Dl-nawI_TPOrROMk-8" style="edgeStyle=orthogonalEdgeStyle;rounded=0;orthogonalLoop=1;jettySize=auto;html=1;exitX=0;exitY=0.5;exitDx=0;exitDy=0;entryX=0.5;entryY=0;entryDx=0;entryDy=0;" parent="1" source="as25Dl-nawI_TPOrROMk-5" target="as25Dl-nawI_TPOrROMk-1" edge="1">
          <mxGeometry relative="1" as="geometry" />
        </mxCell>
        <mxCell id="as25Dl-nawI_TPOrROMk-5" value="Cliente" style="ellipse;whiteSpace=wrap;html=1;aspect=fixed;fontSize=17;" parent="1" vertex="1">
          <mxGeometry x="570" y="20" width="180" height="180" as="geometry" />
        </mxCell>
      </root>
    </mxGraphModel>
  </diagram>
</mxfile>
